<?xml version="1.0" encoding="UTF-8"?>
<svg id="a" data-name="Layer 1" xmlns="http://www.w3.org/2000/svg" width="500" height="500" viewBox="0 0 1000 1000">
  <defs>
    <style>
      .b {
        fill: #c49a6c;
      }

      .c {
        fill: #c05b27;
      }

      .d {
        fill: none;
      }

      .e {
        fill: #1a1a1a;
      }

      .f {
        fill: #e68324;
      }

      .g {
        fill: #c56829;
      }

      .h {
        fill: #754c29;
      }

      .i {
        fill: #f2c31a;
      }

      .j {
        fill: #fbb040;
      }

      .k {
        fill: #27aae1;
      }
    </style>
  </defs>
  <path class="b" d="M310.36,481.03c5.13,8.1,9.99,18.63,15.76,26.16.6.79,2.79,2.57,4.12,4.12.42.49.94.9,1.37,1.37,2.67,2.92,5.45,5.48,8.25,8.25,4.64,3.33,10.51,8.3,15.12,11,19.36,11.35,43.48,19.66,65.99,20.62-1.91,22.87-4.76,48.57-2.76,71.48.04.45-.05.92,0,1.37.02.15,1.1.46,1.37,2.75,1.41,11.75,3.93,21.72,6.87,32.99,2.17,8.3,5.08,16.36,6.87,24.74,3.83,9.43,7.87,18.46,12.37,27.49,2.72,5.47,5.1,11.11,9.36,15.82-5.78,8.86-13.63,16.21-20.36,24.04-5.8,9.26-12.86,17.93-19.5,26.62-11.57,15.15-26.24,32.28-33.4,50.38-9.45,23.88-6.06,43.93,24.03,41.21,8.79-.79,13.88-5.27,21.99-6.87,23.2-13.57,46.21-29.48,66.73-45.3,3.19-2.46,1.46-6.15,10.25-4.2-.38,5.55.53,11.07,1.37,16.5,1.22,7.94,2.11,13.89,2.75,21.99.64,8.03,2.06,15.97,1.43,24.11l-4.13,46.49c-.93,2.6-25.59,1.17-29.59.87-81.37-6.25-172.9-45.29-244-83.84-3.71-2.01-7.82-3.72-11-5.5-34.52-19.29-68.16-41.22-98.97-65.98-7.95-4.14-14.74-10.25-21.97-15.8,5.23-7.27,10.75-14.89,15.1-22.69,52.29-93.86,45.95-203.89,71.58-305.75,18.18-72.26,48.06-136.63,101.62-189.11.46-.45.92-.91,1.37-1.37,1.56-1.58,2.04-4.36,5.5-4.12,5.09-6.13,9.44-9.93,16.5-15.12,4.02-2.96,8.03-5.77,12.36-8.25-1.43,13.26-.15,31.77,9.65,41.92,3.65,3.77,9.32,4.74,12.36,8.94.14-.14,1.98,0,2.75,0-6.3-27.93-4.85-55.02,1.78-82.76,5.52-23.1,21.91-65.94,39.46-80.82,1.32-1.12,1.52-2.62,4.12-4.12.21-4.52,9.17-13.85,12.11-8.68,3.19,5.61,6.63,28.15,8.08,35.91,4.31,23.17,8.13,48.63,5.76,72.26-1.45,14.43-9.51,28.81-10.83,43.47.23.11.93.02,1.37,0,3.43-.16,13.74-4.86,16.84-6.85,1.84-1.18,4.29-6.23,7.48-6.7,5.45-.82,19.99,22.92,22.22,28.18,7.29,17.22,7.55,31.61,5.69,49.98,7.65,3.13,4.9.41,8-1.22,9.14-4.81,24.56-14.13,30.49-22.15,6.21-8.41,11.71-21.35,13.76-31.61,6.44,3.79,13.4,6.87,20.61,8.92,24.33,6.93,23.89,1.52,45.35,18.57,2.88,2.29,5.5,4.41,8.25,6.87,1.12,1,1.85,1.89,2.75,2.75.47.45.91.92,1.37,1.37,5.59,5.44,11.74,9.56,15.37,16.94,8.81,17.92,4.23,27,19,46.29,1.63,2.13,3.84,4.77,5.5,6.87,14.61,12.84,26.83,28.24,39.86,42.61.43.48.94.89,1.37,1.37,2.81,3.09,6.79,6.36,9.62,9.62,2.19,2.52,3.52,4.16,5.5,6.87,2.82.96,3.83,3.79,5.5,5.5.45.46.93.9,1.37,1.37,3.6,3.78,8.82,7.54,11,12.37.94.91,1.83,1.87,2.75,2.75,1.44,1.38,2.73,2.77,4.12,4.12.46.45.91.92,1.37,1.37,7.1,6.97,15.58,13.2,20.62,21.99,3.45,3.52,7.75,7.49,11,11,28.7,30.99,28.18,93.6-7.74,119.35-25.14,18.02-48.48,16.6-73.36-1.14-7.37-5.25-11.73-10.33-17.87-16.5-11.37-11.42-32.72-39.32-49.28-40.47-9.53-.67-13.28,9.75-7.49,12.7,4.99,2.55,11.61,1.95,12.75,10.71.69,5.3-6.24,16.21-10.48,16.92-1.51.26-7.03-4.1-8.74-5.36-2.33-1.72-4.64-3.65-6.87-5.5-2.88.46-4.36-1.2-6.48-2.44-12.2-7.13-23.98-15.09-36.13-22.3-5.07-3.01-10.03-6.74-15.12-9.62-3.91-2.22-10.09-6.43-13.38-7.93-15-6.87-41.98,2.74-58.73,3.86-60.11,4.02-103.28-21.47-124.11-78.07-12.28-33.38-12.02-67.17-7.22-102.06-.43.14-1.01-.16-1.37,0-17.87,33.88-21.63,71.16-14.48,108.64.76,4,5.97,18.43,5.84,19.95l2.5,7.45Z"/>
  <g>
    <g>
      <path class="d" d="M138.6,557.9c.05-.45-.05-.92,0-1.37,3.93-12.26,4.81-25.69,5.5-38.49,1.24-6.71,2.07-10.86,2.75-17.87l9.62-56.36c.66.07,1.08-.02,1.35-.7,1.06-8.64,3.38-17.03,5.52-25.41,2.32-9.08,4.21-18.53,6.87-27.49.3-1.01,1.95-4.35,2.75-6.87,1.86-5.9,3.5-12.03,5.5-17.87,3.29-9.64,7.47-19.24,11-28.87,3.81-3.57,4.77-9.46,6.87-13.75,6.44-13.12,13.07-24.7,20.62-37.11,3.59-5.9,7.11-12.18,11-17.87,8.89-13.02,18.67-25.23,28.87-37.11l20.62-20.62c13.67-11.33,28.7-21.14,42.61-31.62,1.61-1.21,6.15-1.77,6.87-5.48l-23.37,2.74c-1.29-.27-13.73,5.51-14.6,5.59-40.09,4.01-92.28,45.35-120.07,80.36l-16.52,24.01,66.89-38.27c4.77-.21.94.6.35,1.36-4.56,5.86-9.08,11.83-13.65,17.68l-6.87,6.87c-.83.9-1.86,1.82-2.75,2.75-1.3,1.36-2.77,2.75-4.12,4.12-.45.46-.92.92-1.37,1.37-1.35,1.35-2.77,2.81-4.12,4.12-.46.45-.91.93-1.37,1.37l-6.87,6.87c-4.98,4.71-12.38,9.97-17.87,15.12-9.7,9.09-19.49,18.15-27.49,28.87-33.73,35.03-57.38,80.79-67.35,125.09l-10.98,26.12c.27.33,4.66-2.53,5.56-3.37,2.78-2.61,6.18-8.17,8.18-10.38,16.48-18.29,30.27-37.45,45.36-56.36l16.5-16.5c1.26-.13,1.98-2.63,4.09.69-4.55,8.7-8.28,17.83-12.34,26.8-2.93,6.48-5.87,12.8-8.95,19.23-.67,1.4-3.43,4.69-.67,5.52-.26.51-1.13.9-1.37,1.37-3.8,7.2-8.34,14.25-11,21.99-7.48,12.85-15.24,25.09-21.99,37.11-2.49,4.44-5.19,10.28-6.87,15.12-8.73,16.47-14.21,30.18-17.87,49.49-2.39,1.38-2.31,3.84-2.81,6.13-4.55,20.96-6.01,42.53-5.43,63.98,2.39-.36,2.34-2.79,3.12-4.42,4.4-9.15,6.83-19.22,10.61-28.57,1.27-3.14,2.79-6.46,4.12-9.62l13.75-27.49c9.38-16.59,19.8-32.57,31.6-47.43,2.08-1.83,2.89,5.06,2.9,5.59.04,2.49-2.56,1.7-2.86,2.92-.62,2.54.3,5.95-.02,8.68-.87,7.28-1.27,16.41-2.75,23.37-4.27,20.15-14.74,35.84-20.62,54.98-8.72,28.37-11.95,61.54-8.25,90.72.35,2.8,2.82,15.58,4.14,16.49l11.85-15.6c12.95-24.93,25.02-49.12,32.12-76.49,7.26-28.02,10.49-56.59,13.75-85.22Z"/>
      <path class="d" d="M652.7,612.88l-19.24-19.24c-2.47-2.94-5.23-5.21-7.65-8.17-1.67-2.05-1.52-6.52-4.02-5.56-3.35,1.29-21.34,22.98-25.45,27.48l-32.99,34.36c-.44.47-.93.9-1.37,1.37l-15.12,16.5c-31.53,33.71-61.24,68.61-90.72,103.79-17.51,20.9-36.33,41.03-49.48,66.66-2.04,3.97-10.63,15.48-4.11,18.56,5.95,2.82,18-5.8,23.36-8.94,20.06-11.78,39.28-29.62,56.36-45.36,5.67-1.79,9.99-8,13.75-12.37,6.72-4.72,15.34-13.28,21.99-19.24,9.92-8.88,19.3-18.25,28.87-27.49.47-.45.91-.92,1.37-1.37l8.25-8.25c2.35-2.27,4.57-4.62,6.87-6.87l18.59-16.46c18.37-18.05,36.26-36.68,54.26-55.02,1.35-1.38,2.75-2.72,4.12-4.12,6.24-6.37,14.16-11.82,19.24-19.24,5.3-7.74-1.74-7.25-6.87-11Z"/>
      <path class="d" d="M464.38,219.75c7.72,10.03,10.99,17.54,15.12,28.87,1.98,5.44,4.32,10.77,5.52,16.48,2.58.36.9-2.75,1.36-4.11,4.27.61,2.73-3.53,4.12-6.87,1.49-3.01,4.1-6.61,5.09-9.34,2.26-6.2,2.54-20.88,4.67-24.19,2.37-3.67,6.63.09,10.85,1.91,17.1,12.53,50.22,19.89,70.1,12.37,2.67-1.01,7.14-.19,6.86-5.49-.32-.35-2.91.92-4.29.61-20.7-4.55-52.77-34.17-74.05-45.98-12.42-6.89-15.63-9.19-30.24-12.37-3-.65-5.28-.89-8.25-1.37,1.06-3.84-5.64-3.31-7.99-3.69-6.41-1.04-12.97-2.06-19.51-1.8v35.05c0,.38-1.45.92-1.13,1.8,8.12,4.97,14.54,11.96,21.74,18.13Z"/>
      <path class="d" d="M696.14,632.21c-.92-.1-.87-2.79-1.55-2.9-3.18-.49-16.09,10.44-18.53,13.81l-8.25,6.86c9.22.37,20.59-1.2,28.87-5.48,6.68-3.46,5.58-4.76,9.04-9.53,1.09-1.5,3.7-.76,3.32-2.83-4.13-2.08-10.15.36-12.9.07Z"/>
      <path class="d" d="M505.61,153.77c7.06,4.68,17.22,7.95,24.74,12.37.39,2.3,10.11,6.17,12.3,7.69,1.54,1.07.74,3.7,2.8,3.29,3.53-6.12,5.11-11.13,6.89-17.86,3.65-13.82,3.89-23.39,4.12-37.11,0-.46,0-.92,0-1.37,2.1-7.43,1.96-18.32,1.37-26.12-.23-3.14-1-6.66-2.06-9.62-10.44,11.92-23.23,22.37-33.18,34.84-3.67,4.59-11.2,14.63-14.01,19.68-.8,1.45-5.47,10.39-5.58,11-.39,2.16,1.32,2.35,2.6,3.2Z"/>
      <path class="d" d="M544.07,624.53c7.27-7.73,24.06-21.24,28.97-28.76.84-1.29,2.16-3.52,1.25-4.81-.14-.2-3.19-.74-4.49-1.65-9.17-6.38-18.53-12.88-28.01-18.77-7.9-4.91-37.17-23.27-44.03-24.69-14.21-2.94-38.53,8.29-53.93,6.62-8.86,55.03.48,108.86,26.07,158.01,15.82-16.83,29.36-36.11,44.64-53.63,9.49-10.87,19.64-21.8,29.54-32.32Z"/>
      <path class="d" d="M736.55,461.68c-5.04-8.79-13.52-15.02-20.62-21.99-.46-.45-.91-.92-1.37-1.37-1.39-1.35-2.68-2.75-4.12-4.12-.92-.88-1.81-1.84-2.75-2.75-2.18-4.83-7.4-8.59-11-12.37-.45-.47-.92-.91-1.37-1.37-1.67-1.71-2.68-4.53-5.5-5.5-1.98-2.71-3.31-4.35-5.5-6.87-2.84-3.27-6.81-6.53-9.62-9.62-.44-.48-.94-.9-1.37-1.37-13.03-14.37-25.26-29.77-39.86-42.61-1.66-2.11-3.87-4.74-5.5-6.87-14.77-19.29-10.19-28.38-19-46.29-3.63-7.38-9.77-11.5-15.37-16.94-.46-.45-.9-.93-1.37-1.37-.9-.86-1.63-1.75-2.75-2.75-2.75-2.46-5.37-4.59-8.25-6.87-21.46-17.04-21.02-11.64-45.35-18.57-7.21-2.05-14.17-5.14-20.61-8.92-2.05,10.26-7.55,23.21-13.76,31.61-5.93,8.02-21.35,17.34-30.49,22.15-3.11,1.63-.35,4.35-8,1.22,1.86-18.37,1.6-32.75-5.69-49.98-2.23-5.26-16.77-29-22.22-28.18-3.19.48-5.65,5.52-7.48,6.7-3.1,1.99-13.41,6.69-16.84,6.85-.44.02-1.15.11-1.37,0,1.32-14.66,9.38-29.04,10.83-43.47,2.37-23.62-1.45-49.08-5.76-72.26-1.44-7.76-4.89-30.3-8.08-35.91-2.94-5.17-11.91,4.15-12.11,8.68-2.61,1.5-2.8,3-4.12,4.12-17.55,14.88-33.94,57.71-39.46,80.82-6.62,27.74-8.08,54.83-1.78,82.76-.76,0-2.61-.14-2.75,0-3.04-4.2-8.72-5.17-12.36-8.94-9.8-10.14-11.08-28.65-9.65-41.92-4.33,2.48-8.34,5.29-12.36,8.25-7.05,5.19-11.4,8.99-16.5,15.12-3.46-.23-3.94,2.55-5.5,4.12-.46.46-.91.92-1.37,1.37-53.56,52.47-83.44,116.85-101.62,189.11-25.63,101.86-19.29,211.88-71.58,305.75-4.35,7.8-9.87,15.42-15.1,22.69,7.23,5.55,14.02,11.66,21.97,15.8,30.82,24.76,64.45,46.69,98.97,65.98,3.18,1.78,7.29,3.49,11,5.5,71.11,38.54,162.63,77.58,244,83.84,4,.31,28.66,1.73,29.59-.87l4.13-46.49c.63-8.15-.8-16.08-1.43-24.11-.64-8.1-1.53-14.05-2.75-21.99-.84-5.43-1.75-10.95-1.37-16.5-8.79-1.95-7.06,1.74-10.25,4.2-20.52,15.82-43.53,31.72-66.73,45.3-8.12,1.6-13.2,6.08-21.99,6.87-30.09,2.71-33.48-17.34-24.03-41.21,7.17-18.1,21.84-35.23,33.4-50.38,6.64-8.69,13.69-17.36,19.5-26.62,6.72-7.83,14.58-15.18,20.36-24.04-4.26-4.71-6.64-10.36-9.36-15.82-4.5-9.03-8.55-18.06-12.37-27.49-1.79-8.39-4.71-16.44-6.87-24.74-2.94-11.27-5.46-21.24-6.87-32.99-.28-2.29-1.36-2.6-1.37-2.75-.05-.45.04-.92,0-1.37-2-22.91.85-48.6,2.76-71.48-22.51-.96-46.62-9.27-65.99-20.62-4.61-2.7-10.48-7.66-15.12-11-2.8-2.77-5.58-5.32-8.25-8.25-.43-.48-.96-.89-1.37-1.37-1.33-1.55-3.52-3.34-4.12-4.12-5.77-7.53-10.63-18.06-15.76-26.16-1.32-2.08-1.54-4.25-4.86-4.08.07-.45-.07-.93,0-1.37.02-.15,2.24-.52,2.36-2,.12-1.52-5.08-15.95-5.84-19.95-7.15-37.48-3.39-74.76,14.48-108.64.36-.16.94.14,1.37,0-4.8,34.89-5.07,68.68,7.22,102.06,20.83,56.59,64,82.08,124.11,78.07,16.75-1.12,43.73-10.73,58.73-3.86,3.28,1.5,9.46,5.71,13.38,7.93,5.1,2.89,10.05,6.61,15.12,9.62,12.15,7.21,23.93,15.17,36.13,22.3,2.12,1.24,3.61,2.9,6.48,2.44,2.24,1.85,4.54,3.78,6.87,5.5,1.71,1.26,7.23,5.62,8.74,5.36,4.23-.72,11.17-11.62,10.48-16.92-1.14-8.76-7.76-8.16-12.75-10.71-5.79-2.96-2.05-13.37,7.49-12.7,16.55,1.16,37.9,29.06,49.28,40.47,6.14,6.17,10.5,11.24,17.87,16.5,24.88,17.74,48.22,19.16,73.36,1.14,35.92-25.75,36.44-88.36,7.74-119.35-3.25-3.51-7.55-7.48-11-11Z"/>
      <path class="d" d="M957.18,195.01c-.83.39-8.59,12.69-10.32,15.11-1.07,1.5-2.02,3.12-2.75,4.12-3.7,1.71-5.67,5.69-8.25,8.25-.46.46-.92.92-1.37,1.37-3.04,3.04-7.47,5.49-9.62,9.62-15.37,10.88-43.59,24.17-54.98,37.11-4.27,1.04-8.23,5.76-10.96,8.98-23.59,27.84-35.66,68.72-11.05,99.62,1.95-26.85,11.71-53.65,28.88-74.23,1.68-2.01,3.07-4.24,5.5-5.5-7.26,30.2-16.24,59.09-13.75,90.73,25.15,1.37,56.14-11.3,72.86-30.25.75-.85,1.68-1.41,2.75-2.75,37.9-36.76,38.94-108.06,18.54-153.94-.74-1.66-3.33-9.26-5.47-8.26Z"/>
      <path class="d" d="M847.89,408.07c-6-6.28-13.57-10.47-18.56-17.85l-36.43,38.46c-1.38,1.36-2.76,2.8-4.12,4.12-1.92,1.86-3.63,3.61-5.5,5.5-.46.46-.93.91-1.37,1.37-3.14,3.27-8.36,6.94-9.62,11-.49.44-.91.92-1.37,1.37-1.11,1.08-3.22,1.79-4.11,3.46-.45,1.3,5.05,5.84,6.86,7.54.47.44.92.92,1.37,1.37,6.72,8.95,12.23,18.99,13.76,30.23,2.56.27,2.03-4.98,2.73-5.49.38-.28,2.39.29,2.74,0,.34-.28-.3-2.21,0-2.74,1.6-2.76,6.82-8.31,9.62-12.37,6.88-7.1,13.24-15.21,19.23-23.04,1.35-1.76,4.57-6.15,4.14-8.57,7.01-8.64,14.39-17.28,20.53-25.42,1.33-1.76,4.95-4.04,5.58-5.53,1.21-2.86-3.94-2.67-5.49-3.42Z"/>
      <g>
        <path class="d" d="M138.6,557.9c.05-.45-.05-.92,0-1.37,3.93-12.26,4.81-25.69,5.5-38.49,1.24-6.71,2.07-10.86,2.75-17.87l9.62-56.36c.66.07,1.08-.02,1.35-.7,1.06-8.64,3.38-17.03,5.52-25.41,2.32-9.08,4.21-18.53,6.87-27.49.3-1.01,1.95-4.35,2.75-6.87,1.86-5.9,3.5-12.03,5.5-17.87,3.29-9.64,7.47-19.24,11-28.87,3.81-3.57,4.77-9.46,6.87-13.75,6.44-13.12,13.07-24.7,20.62-37.11,3.59-5.9,7.11-12.18,11-17.87,8.89-13.02,18.67-25.23,28.87-37.11l20.62-20.62c13.67-11.33,28.7-21.14,42.61-31.62,1.61-1.21,6.15-1.77,6.87-5.48l-23.37,2.74c-1.29-.27-13.73,5.51-14.6,5.59-40.09,4.01-92.28,45.35-120.07,80.36l-16.52,24.01,66.89-38.27c4.77-.21.94.6.35,1.36-4.56,5.86-9.08,11.83-13.65,17.68l-6.87,6.87c-.83.9-1.86,1.82-2.75,2.75-1.3,1.36-2.77,2.75-4.12,4.12-.45.46-.92.92-1.37,1.37-1.35,1.35-2.77,2.81-4.12,4.12-.46.45-.91.93-1.37,1.37l-6.87,6.87c-4.98,4.71-12.38,9.97-17.87,15.12-9.7,9.09-19.49,18.15-27.49,28.87-33.73,35.03-57.38,80.79-67.35,125.09l-10.98,26.12c.27.33,4.66-2.53,5.56-3.37,2.78-2.61,6.18-8.17,8.18-10.38,16.48-18.29,30.27-37.45,45.36-56.36l16.5-16.5c1.26-.13,1.98-2.63,4.09.69-4.55,8.7-8.28,17.83-12.34,26.8-2.93,6.48-5.87,12.8-8.95,19.23-.67,1.4-3.43,4.69-.67,5.52-.26.51-1.13.9-1.37,1.37-3.8,7.2-8.34,14.25-11,21.99-7.48,12.85-15.24,25.09-21.99,37.11-2.49,4.44-5.19,10.28-6.87,15.12-8.73,16.47-14.21,30.18-17.87,49.49-2.39,1.38-2.31,3.84-2.81,6.13-4.55,20.96-6.01,42.53-5.43,63.98,2.39-.36,2.34-2.79,3.12-4.42,4.4-9.15,6.83-19.22,10.61-28.57,1.27-3.14,2.79-6.46,4.12-9.62l13.75-27.49c9.38-16.59,19.8-32.57,31.6-47.43,2.08-1.83,2.89,5.06,2.9,5.59.04,2.49-2.56,1.7-2.86,2.92-.62,2.54.3,5.95-.02,8.68-.87,7.28-1.27,16.41-2.75,23.37-4.27,20.15-14.74,35.84-20.62,54.98-8.72,28.37-11.95,61.54-8.25,90.72.35,2.8,2.82,15.58,4.14,16.49l11.85-15.6c12.95-24.93,25.02-49.12,32.12-76.49,7.26-28.02,10.49-56.59,13.75-85.22Z"/>
        <path class="d" d="M652.7,612.88l-19.24-19.24c-2.47-2.94-5.23-5.21-7.65-8.17-1.67-2.05-1.52-6.52-4.02-5.56-3.35,1.29-21.34,22.98-25.45,27.48l-32.99,34.36c-.44.47-.93.9-1.37,1.37l-15.12,16.5c-31.53,33.71-61.24,68.61-90.72,103.79-17.51,20.9-36.33,41.03-49.48,66.66-2.04,3.97-10.63,15.48-4.11,18.56,5.95,2.82,18-5.8,23.36-8.94,20.06-11.78,39.28-29.62,56.36-45.36,5.67-1.79,9.99-8,13.75-12.37,6.72-4.72,15.34-13.28,21.99-19.24,9.92-8.88,19.3-18.25,28.87-27.49.47-.45.91-.92,1.37-1.37l8.25-8.25c2.35-2.27,4.57-4.62,6.87-6.87l18.59-16.46c18.37-18.05,36.26-36.68,54.26-55.02,1.35-1.38,2.75-2.72,4.12-4.12,6.24-6.37,14.16-11.82,19.24-19.24,5.3-7.74-1.74-7.25-6.87-11Z"/>
        <path class="d" d="M544.07,624.53c7.27-7.73,24.06-21.24,28.97-28.76.84-1.29,2.16-3.52,1.25-4.81-.14-.2-3.19-.74-4.49-1.65-9.17-6.38-18.53-12.88-28.01-18.77-7.9-4.91-37.17-23.27-44.03-24.69-14.21-2.94-38.53,8.29-53.93,6.62-8.86,55.03.48,108.86,26.07,158.01,15.82-16.83,29.36-36.11,44.64-53.63,9.49-10.87,19.64-21.8,29.54-32.32Z"/>
        <path class="d" d="M505.61,153.77c7.06,4.68,17.22,7.95,24.74,12.37.39,2.3,10.11,6.17,12.3,7.69,1.54,1.07.74,3.7,2.8,3.29,3.53-6.12,5.11-11.13,6.89-17.86,3.65-13.82,3.89-23.39,4.12-37.11,0-.46,0-.92,0-1.37,2.1-7.43,1.96-18.32,1.37-26.12-.23-3.14-1-6.66-2.06-9.62-10.44,11.92-23.23,22.37-33.18,34.84-3.67,4.59-11.2,14.63-14.01,19.68-.8,1.45-5.47,10.39-5.58,11-.39,2.16,1.32,2.35,2.6,3.2Z"/>
        <path class="d" d="M464.38,219.75c7.72,10.03,10.99,17.54,15.12,28.87,1.98,5.44,4.32,10.77,5.52,16.48,2.58.36.9-2.75,1.36-4.11,4.27.61,2.73-3.53,4.12-6.87,1.49-3.01,4.1-6.61,5.09-9.34,2.26-6.2,2.54-20.88,4.67-24.19,2.37-3.67,6.63.09,10.85,1.91,17.1,12.53,50.22,19.89,70.1,12.37,2.67-1.01,7.14-.19,6.86-5.49-.32-.35-2.91.92-4.29.61-20.7-4.55-52.77-34.17-74.05-45.98-12.42-6.89-15.63-9.19-30.24-12.37-3-.65-5.28-.89-8.25-1.37,1.06-3.84-5.64-3.31-7.99-3.69-6.41-1.04-12.97-2.06-19.51-1.8v35.05c0,.38-1.45.92-1.13,1.8,8.12,4.97,14.54,11.96,21.74,18.13Z"/>
        <path class="d" d="M847.89,408.07c-6-6.28-13.57-10.47-18.56-17.85l-36.43,38.46c-1.38,1.36-2.76,2.8-4.12,4.12-1.92,1.86-3.63,3.61-5.5,5.5-.46.46-.93.91-1.37,1.37-3.14,3.27-8.36,6.94-9.62,11-.49.44-.91.92-1.37,1.37-1.11,1.08-3.22,1.79-4.11,3.46-.45,1.3,5.05,5.84,6.86,7.54.47.44.92.92,1.37,1.37,6.72,8.95,12.23,18.99,13.76,30.23,2.56.27,2.03-4.98,2.73-5.49.38-.28,2.39.29,2.74,0,.34-.28-.3-2.21,0-2.74,1.6-2.76,6.82-8.31,9.62-12.37,6.88-7.1,13.24-15.21,19.23-23.04,1.35-1.76,4.57-6.15,4.14-8.57,7.01-8.64,14.39-17.28,20.53-25.42,1.33-1.76,4.95-4.04,5.58-5.53,1.21-2.86-3.94-2.67-5.49-3.42Z"/>
        <path class="d" d="M957.18,195.01c-.83.39-8.59,12.69-10.32,15.11-1.07,1.5-2.02,3.12-2.75,4.12-3.7,1.71-5.67,5.69-8.25,8.25-.46.46-.92.92-1.37,1.37-3.04,3.04-7.47,5.49-9.62,9.62-15.37,10.88-43.59,24.17-54.98,37.11-4.27,1.04-8.23,5.76-10.96,8.98-23.59,27.84-35.66,68.72-11.05,99.62,1.95-26.85,11.71-53.65,28.88-74.23,1.68-2.01,3.07-4.24,5.5-5.5-7.26,30.2-16.24,59.09-13.75,90.73,25.15,1.37,56.14-11.3,72.86-30.25.75-.85,1.68-1.41,2.75-2.75,37.9-36.76,38.94-108.06,18.54-153.94-.74-1.66-3.33-9.26-5.47-8.26Z"/>
        <path class="d" d="M696.14,632.21c-.92-.1-.87-2.79-1.55-2.9-3.18-.49-16.09,10.44-18.53,13.81l-8.25,6.86c9.22.37,20.59-1.2,28.87-5.48,6.68-3.46,5.58-4.76,9.04-9.53,1.09-1.5,3.7-.76,3.32-2.83-4.13-2.08-10.15.36-12.9.07Z"/>
        <path class="d" d="M736.55,461.68c-5.04-8.79-13.52-15.02-20.62-21.99-.46-.45-.91-.92-1.37-1.37-1.39-1.35-2.68-2.75-4.12-4.12-.92-.88-1.81-1.84-2.75-2.75-2.18-4.83-7.4-8.59-11-12.37-.45-.47-.92-.91-1.37-1.37-1.67-1.71-2.68-4.53-5.5-5.5-1.98-2.71-3.31-4.35-5.5-6.87-2.84-3.27-6.81-6.53-9.62-9.62-.44-.48-.94-.9-1.37-1.37-13.03-14.37-25.26-29.77-39.86-42.61-1.66-2.11-3.87-4.74-5.5-6.87-14.77-19.29-10.19-28.38-19-46.29-3.63-7.38-9.77-11.5-15.37-16.94-.46-.45-.9-.93-1.37-1.37-.9-.86-1.63-1.75-2.75-2.75-2.75-2.46-5.37-4.59-8.25-6.87-21.46-17.04-21.02-11.64-45.35-18.57-7.21-2.05-14.17-5.14-20.61-8.92-2.05,10.26-7.55,23.21-13.76,31.61-5.93,8.02-21.35,17.34-30.49,22.15-3.11,1.63-.35,4.35-8,1.22,1.86-18.37,1.6-32.75-5.69-49.98-2.23-5.26-16.77-29-22.22-28.18-3.19.48-5.65,5.52-7.48,6.7-3.1,1.99-13.41,6.69-16.84,6.85-.44.02-1.15.11-1.37,0,1.32-14.66,9.38-29.04,10.83-43.47,2.37-23.62-1.45-49.08-5.76-72.26-1.44-7.76-4.89-30.3-8.08-35.91-2.94-5.17-11.91,4.15-12.11,8.68-2.61,1.5-2.8,3-4.12,4.12-17.55,14.88-33.94,57.71-39.46,80.82-6.62,27.74-8.08,54.83-1.78,82.76-.76,0-2.61-.14-2.75,0-3.04-4.2-8.72-5.17-12.36-8.94-9.8-10.14-11.08-28.65-9.65-41.92-4.33,2.48-8.34,5.29-12.36,8.25-7.05,5.19-11.4,8.99-16.5,15.12-3.46-.23-3.94,2.55-5.5,4.12-.46.46-.91.92-1.37,1.37-53.56,52.47-83.44,116.85-101.62,189.11-25.63,101.86-19.29,211.88-71.58,305.75-4.35,7.8-9.87,15.42-15.1,22.69,7.23,5.55,14.02,11.66,21.97,15.8,30.82,24.76,64.45,46.69,98.97,65.98,3.18,1.78,7.29,3.49,11,5.5,71.11,38.54,162.63,77.58,244,83.84,4,.31,28.66,1.73,29.59-.87l4.13-46.49c.63-8.15-.8-16.08-1.43-24.11-.64-8.1-1.53-14.05-2.75-21.99-.84-5.43-1.75-10.95-1.37-16.5-8.79-1.95-7.06,1.74-10.25,4.2-20.52,15.82-43.53,31.72-66.73,45.3-8.12,1.6-13.2,6.08-21.99,6.87-30.09,2.71-33.48-17.34-24.03-41.21,7.17-18.1,21.84-35.23,33.4-50.38,6.64-8.69,13.69-17.36,19.5-26.62,6.72-7.83,14.58-15.18,20.36-24.04-4.26-4.71-6.64-10.36-9.36-15.82-4.5-9.03-8.55-18.06-12.37-27.49-1.79-8.39-4.71-16.44-6.87-24.74-2.94-11.27-5.46-21.24-6.87-32.99-.28-2.29-1.36-2.6-1.37-2.75-.05-.45.04-.92,0-1.37-2-22.91.85-48.6,2.76-71.48-22.51-.96-46.62-9.27-65.99-20.62-4.61-2.7-10.48-7.66-15.12-11-2.8-2.77-5.58-5.32-8.25-8.25-.43-.48-.96-.89-1.37-1.37-1.33-1.55-3.52-3.34-4.12-4.12-5.77-7.53-10.63-18.06-15.76-26.16l-2.5-7.45c.12-1.52-5.08-15.95-5.84-19.95-7.15-37.48-3.39-74.76,14.48-108.64.36-.16.94.14,1.37,0-4.8,34.89-5.07,68.68,7.22,102.06,20.83,56.59,64,82.08,124.11,78.07,16.75-1.12,43.73-10.73,58.73-3.86,3.28,1.5,9.46,5.71,13.38,7.93,5.1,2.89,10.05,6.61,15.12,9.62,12.15,7.21,23.93,15.17,36.13,22.3,2.12,1.24,3.61,2.9,6.48,2.44,2.24,1.85,4.54,3.78,6.87,5.5,1.71,1.26,7.23,5.62,8.74,5.36,4.23-.72,11.17-11.62,10.48-16.92-1.14-8.76-7.76-8.16-12.75-10.71-5.79-2.96-2.05-13.37,7.49-12.7,16.55,1.16,37.9,29.06,49.28,40.47,6.14,6.17,10.5,11.24,17.87,16.5,24.88,17.74,48.22,19.16,73.36,1.14,35.92-25.75,36.44-88.36,7.74-119.35-3.25-3.51-7.55-7.48-11-11Z"/>
        <g>
          <path class="d" d="M138.6,557.9c.05-.45-.05-.92,0-1.37,3.93-12.26,4.81-25.69,5.5-38.49,1.24-6.71,2.07-10.86,2.75-17.87l9.62-56.36c.66.07,1.08-.02,1.35-.7,1.06-8.64,3.38-17.03,5.52-25.41,2.32-9.08,4.21-18.53,6.87-27.49.3-1.01,1.95-4.35,2.75-6.87,1.86-5.9,3.5-12.03,5.5-17.87,3.29-9.64,7.47-19.24,11-28.87,3.81-3.57,4.77-9.46,6.87-13.75,6.44-13.12,13.07-24.7,20.62-37.11,3.59-5.9,7.11-12.18,11-17.87,8.89-13.02,18.67-25.23,28.87-37.11l20.62-20.62c13.67-11.33,28.7-21.14,42.61-31.62,1.61-1.21,6.15-1.77,6.87-5.48l-23.37,2.74c-1.29-.27-13.73,5.51-14.6,5.59-40.09,4.01-92.28,45.35-120.07,80.36l-16.52,24.01,66.89-38.27c4.77-.21.94.6.35,1.36-4.56,5.86-9.08,11.83-13.65,17.68l-6.87,6.87c-.83.9-1.86,1.82-2.75,2.75-1.3,1.36-2.77,2.75-4.12,4.12-.45.46-.92.92-1.37,1.37-1.35,1.35-2.77,2.81-4.12,4.12-.46.45-.91.93-1.37,1.37l-6.87,6.87c-4.98,4.71-12.38,9.97-17.87,15.12-9.7,9.09-19.49,18.15-27.49,28.87-33.73,35.03-57.38,80.79-67.35,125.09l-10.98,26.12c.27.33,4.66-2.53,5.56-3.37,2.78-2.61,6.18-8.17,8.18-10.38,16.48-18.29,30.27-37.45,45.36-56.36l16.5-16.5c1.26-.13,1.98-2.63,4.09.69-4.55,8.7-8.28,17.83-12.34,26.8-2.93,6.48-5.87,12.8-8.95,19.23-.67,1.4-3.43,4.69-.67,5.52-.26.51-1.13.9-1.37,1.37-3.8,7.2-8.34,14.25-11,21.99-7.48,12.85-15.24,25.09-21.99,37.11-2.49,4.44-5.19,10.28-6.87,15.12-8.73,16.47-14.21,30.18-17.87,49.49-2.39,1.38-2.31,3.84-2.81,6.13-4.55,20.96-6.01,42.53-5.43,63.98,2.39-.36,2.34-2.79,3.12-4.42,4.4-9.15,6.83-19.22,10.61-28.57,1.27-3.14,2.79-6.46,4.12-9.62l13.75-27.49c9.38-16.59,19.8-32.57,31.6-47.43,2.08-1.83,2.89,5.06,2.9,5.59.04,2.49-2.56,1.7-2.86,2.92-.62,2.54.3,5.95-.02,8.68-.87,7.28-1.27,16.41-2.75,23.37-4.27,20.15-14.74,35.84-20.62,54.98-8.72,28.37-11.95,61.54-8.25,90.72.35,2.8,2.82,15.58,4.14,16.49l11.85-15.6c12.95-24.93,25.02-49.12,32.12-76.49,7.26-28.02,10.49-56.59,13.75-85.22Z"/>
          <path class="d" d="M652.7,612.88l-19.24-19.24c-2.47-2.94-5.23-5.21-7.65-8.17-1.67-2.05-1.52-6.52-4.02-5.56-3.35,1.29-21.34,22.98-25.45,27.48l-32.99,34.36c-.44.47-.93.9-1.37,1.37l-15.12,16.5c-31.53,33.71-61.24,68.61-90.72,103.79-17.51,20.9-36.33,41.03-49.48,66.66-2.04,3.97-10.63,15.48-4.11,18.56,5.95,2.82,18-5.8,23.36-8.94,20.06-11.78,39.28-29.62,56.36-45.36,5.67-1.79,9.99-8,13.75-12.37,6.72-4.72,15.34-13.28,21.99-19.24,9.92-8.88,19.3-18.25,28.87-27.49.47-.45.91-.92,1.37-1.37l8.25-8.25c2.35-2.27,4.57-4.62,6.87-6.87l18.59-16.46c18.37-18.05,36.26-36.68,54.26-55.02,1.35-1.38,2.75-2.72,4.12-4.12,6.24-6.37,14.16-11.82,19.24-19.24,5.3-7.74-1.74-7.25-6.87-11Z"/>
          <path class="d" d="M696.14,632.21c-.92-.1-.87-2.79-1.55-2.9-3.18-.49-16.09,10.44-18.53,13.81l-8.25,6.86c9.22.37,20.59-1.2,28.87-5.48,6.68-3.46,5.58-4.76,9.04-9.53,1.09-1.5,3.7-.76,3.32-2.83-4.13-2.08-10.15.36-12.9.07Z"/>
          <path class="d" d="M505.61,153.77c7.06,4.68,17.22,7.95,24.74,12.37.39,2.3,10.11,6.17,12.3,7.69,1.54,1.07.74,3.7,2.8,3.29,3.53-6.12,5.11-11.13,6.89-17.86,3.65-13.82,3.89-23.39,4.12-37.11,0-.46,0-.92,0-1.37,2.1-7.43,1.96-18.32,1.37-26.12-.23-3.14-1-6.66-2.06-9.62-10.44,11.92-23.23,22.37-33.18,34.84-3.67,4.59-11.2,14.63-14.01,19.68-.8,1.45-5.47,10.39-5.58,11-.39,2.16,1.32,2.35,2.6,3.2Z"/>
          <path class="d" d="M464.38,219.75c7.72,10.03,10.99,17.54,15.12,28.87,1.98,5.44,4.32,10.77,5.52,16.48,2.58.36.9-2.75,1.36-4.11,4.27.61,2.73-3.53,4.12-6.87,1.49-3.01,4.1-6.61,5.09-9.34,2.26-6.2,2.54-20.88,4.67-24.19,2.37-3.67,6.63.09,10.85,1.91,17.1,12.53,50.22,19.89,70.1,12.37,2.67-1.01,7.14-.19,6.86-5.49-.32-.35-2.91.92-4.29.61-20.7-4.55-52.77-34.17-74.05-45.98-12.42-6.89-15.63-9.19-30.24-12.37-3-.65-5.28-.89-8.25-1.37,1.06-3.84-5.64-3.31-7.99-3.69-6.41-1.04-12.97-2.06-19.51-1.8v35.05c0,.38-1.45.92-1.13,1.8,8.12,4.97,14.54,11.96,21.74,18.13Z"/>
          <path class="d" d="M544.07,624.53c7.27-7.73,24.06-21.24,28.97-28.76.84-1.29,2.16-3.52,1.25-4.81-.14-.2-3.19-.74-4.49-1.65-9.17-6.38-18.53-12.88-28.01-18.77-7.9-4.91-37.17-23.27-44.03-24.69-14.21-2.94-38.53,8.29-53.93,6.62-8.86,55.03.48,108.86,26.07,158.01,15.82-16.83,29.36-36.11,44.64-53.63,9.49-10.87,19.64-21.8,29.54-32.32Z"/>
          <path class="d" d="M736.55,461.68c-5.04-8.79-13.52-15.02-20.62-21.99-.46-.45-.91-.92-1.37-1.37-1.39-1.35-2.68-2.75-4.12-4.12-.92-.88-1.81-1.84-2.75-2.75-2.18-4.83-7.4-8.59-11-12.37-.45-.47-.92-.91-1.37-1.37-1.67-1.71-2.68-4.53-5.5-5.5-1.98-2.71-3.31-4.35-5.5-6.87-2.84-3.27-6.81-6.53-9.62-9.62-.44-.48-.94-.9-1.37-1.37-13.03-14.37-25.26-29.77-39.86-42.61-1.66-2.11-3.87-4.74-5.5-6.87-14.77-19.29-10.19-28.38-19-46.29-3.63-7.38-9.77-11.5-15.37-16.94-.46-.45-.9-.93-1.37-1.37-.9-.86-1.63-1.75-2.75-2.75-2.75-2.46-5.37-4.59-8.25-6.87-21.46-17.04-21.02-11.64-45.35-18.57-7.21-2.05-14.17-5.14-20.61-8.92-2.05,10.26-7.55,23.21-13.76,31.61-5.93,8.02-21.35,17.34-30.49,22.15-3.11,1.63-.35,4.35-8,1.22,1.86-18.37,1.6-32.75-5.69-49.98-2.23-5.26-16.77-29-22.22-28.18-3.19.48-5.65,5.52-7.48,6.7-3.1,1.99-13.41,6.69-16.84,6.85-.44.02-1.15.11-1.37,0,1.32-14.66,9.38-29.04,10.83-43.47,2.37-23.62-1.45-49.08-5.76-72.26-1.44-7.76-4.89-30.3-8.08-35.91-2.94-5.17-11.91,4.15-12.11,8.68-2.61,1.5-2.8,3-4.12,4.12-17.55,14.88-33.94,57.71-39.46,80.82-6.62,27.74-8.08,54.83-1.78,82.76-.76,0-2.61-.14-2.75,0-3.04-4.2-8.72-5.17-12.36-8.94-9.8-10.14-11.08-28.65-9.65-41.92-4.33,2.48-8.34,5.29-12.36,8.25-7.05,5.19-11.4,8.99-16.5,15.12-3.46-.23-3.94,2.55-5.5,4.12-.46.46-.91.92-1.37,1.37-53.56,52.47-83.44,116.85-101.62,189.11-25.63,101.86-19.29,211.88-71.58,305.75-4.35,7.8-9.87,15.42-15.1,22.69,7.23,5.55,14.02,11.66,21.97,15.8,30.82,24.76,64.45,46.69,98.97,65.98,3.18,1.78,7.29,3.49,11,5.5,71.11,38.54,162.63,77.58,244,83.84,4,.31,28.66,1.73,29.59-.87l4.13-46.49c.63-8.15-.8-16.08-1.43-24.11-.64-8.1-1.53-14.05-2.75-21.99-.84-5.43-1.75-10.95-1.37-16.5-8.79-1.95-7.06,1.74-10.25,4.2-20.52,15.82-43.53,31.72-66.73,45.3-8.12,1.6-13.2,6.08-21.99,6.87-30.09,2.71-33.48-17.34-24.03-41.21,7.17-18.1,21.84-35.23,33.4-50.38,6.64-8.69,13.69-17.36,19.5-26.62,6.72-7.83,14.58-15.18,20.36-24.04-4.26-4.71-6.64-10.36-9.36-15.82-4.5-9.03-8.55-18.06-12.37-27.49-1.79-8.39-4.71-16.44-6.87-24.74-2.94-11.27-5.46-21.24-6.87-32.99-.28-2.29-1.36-2.6-1.37-2.75-.05-.45.04-.92,0-1.37-2-22.91.85-48.6,2.76-71.48-22.51-.96-46.62-9.27-65.99-20.62-4.61-2.7-10.48-7.66-15.12-11-2.8-2.77-5.58-5.32-8.25-8.25-.43-.48-.96-.89-1.37-1.37-1.33-1.55-3.52-3.34-4.12-4.12-5.77-7.53-10.63-18.06-15.76-26.16l-2.5-7.45c.12-1.52-5.08-15.95-5.84-19.95-7.15-37.48-3.39-74.76,14.48-108.64.36-.16.94.14,1.37,0-4.8,34.89-5.07,68.68,7.22,102.06,20.83,56.59,64,82.08,124.11,78.07,16.75-1.12,43.73-10.73,58.73-3.86,3.28,1.5,9.46,5.71,13.38,7.93,5.1,2.89,10.05,6.61,15.12,9.62,12.15,7.21,23.93,15.17,36.13,22.3,2.12,1.24,3.61,2.9,6.48,2.44,2.24,1.85,4.54,3.78,6.87,5.5,1.71,1.26,7.23,5.62,8.74,5.36,4.23-.72,11.17-11.62,10.48-16.92-1.14-8.76-7.76-8.16-12.75-10.71-5.79-2.96-2.05-13.37,7.49-12.7,16.55,1.16,37.9,29.06,49.28,40.47,6.14,6.17,10.5,11.24,17.87,16.5,24.88,17.74,48.22,19.16,73.36,1.14,35.92-25.75,36.44-88.36,7.74-119.35-3.25-3.51-7.55-7.48-11-11Z"/>
          <path class="d" d="M957.18,195.01c-.83.39-8.59,12.69-10.32,15.11-1.07,1.5-2.02,3.12-2.75,4.12-3.7,1.71-5.67,5.69-8.25,8.25-.46.46-.92.92-1.37,1.37-3.04,3.04-7.47,5.49-9.62,9.62-15.37,10.88-43.59,24.17-54.98,37.11-4.27,1.04-8.23,5.76-10.96,8.98-23.59,27.84-35.66,68.72-11.05,99.62,1.95-26.85,11.71-53.65,28.88-74.23,1.68-2.01,3.07-4.24,5.5-5.5-7.26,30.2-16.24,59.09-13.75,90.73,25.15,1.37,56.14-11.3,72.86-30.25.75-.85,1.68-1.41,2.75-2.75,37.9-36.76,38.94-108.06,18.54-153.94-.74-1.66-3.33-9.26-5.47-8.26Z"/>
          <path class="d" d="M847.89,408.07c-6-6.28-13.57-10.47-18.56-17.85l-36.43,38.46c-1.38,1.36-2.76,2.8-4.12,4.12-1.92,1.86-3.63,3.61-5.5,5.5-.46.46-.93.91-1.37,1.37-3.14,3.27-8.36,6.94-9.62,11-.49.44-.91.92-1.37,1.37-1.11,1.08-3.22,1.79-4.11,3.46-.45,1.3,5.05,5.84,6.86,7.54.47.44.92.92,1.37,1.37,6.72,8.95,12.23,18.99,13.76,30.23,2.56.27,2.03-4.98,2.73-5.49.38-.28,2.39.29,2.74,0,.34-.28-.3-2.21,0-2.74,1.6-2.76,6.82-8.31,9.62-12.37,6.88-7.1,13.24-15.21,19.23-23.04,1.35-1.76,4.57-6.15,4.14-8.57,7.01-8.64,14.39-17.28,20.53-25.42,1.33-1.76,4.95-4.04,5.58-5.53,1.21-2.86-3.94-2.67-5.49-3.42Z"/>
          <path class="e" d="M974.62,174.81c-3.13-5.19-21.3-29.3-27.76-25.96-3.83,1.98-6.69,23.55-8.95,29.64-15.3,41.3-68.67,53.19-96.93,84.52-27.02,29.95-34.56,69.54-24.84,108.39-17.62,15.84-33.96,33.02-50.76,49.69-2.57,2.54-13.49,16.31-16.95,15.75l-77.19-79.61c-7.69-11.4-22.63-22.13-29.57-33.66-3.39-5.62-2.8-16.43-5.07-23.79-5.08-16.44-19.39-31.18-32.12-42.11-2.41-2.07-9.28-3.79-5.91-6.4,1.58-1.22,6.62-2.66,9.19-4.3,7.17-4.59,16.52-11.86,19.84-20.02,7.03-17.33-5.36-11.53-16.46-13.05-14.58-2.01-31.23-11.54-42.14-21.19,2.81-12.21,7.86-23.77,10.22-36.14,4.48-23.48,4.35-48.29.24-71.81-1.12-6.41-4.08-21.46-8.45-25.91-10.09-10.29-32.01,9.7-39.91,16.61-21.45,18.78-39.42,43.16-56.36,66-1.07,1.37-1.94,2.34-3.84,2.35-3.15.03-27.11-1.83-28.31-2.59-6.32-24.38-7.98-53.83-18.74-76.8-10.36-22.12-20.84-18.75-37.82-4.82-26.47,21.7-42.39,56.53-52.41,88.49-47.78,1.54-95.56,19.7-133.03,49.11-39.71,31.17-66.2,77.44-106.9,106.16-10.89,7.68-31.68,12.33-9.06,20.56,7.87,2.86,15.49,3.09,23.74,3.74-22.93,24.92-40.04,53.82-51.88,85.58-10.24,27.49-15.37,58.85-32.22,83.25-3.12,4.52-23.57,27.02-23.12,29.09,1.99,9.2,40.08-1.62,46.72-4.11-28.17,57.5-33.12,123.2-16.45,184.89,1.49,1.18,17.03-22.59,19.19-24.09,5.24-3.64,1.45,3.5,1.41,4.16-.44,8.58,0,17.49,0,26.12,0,52.47,86.6,103.35,126.58,127.72,70.21,42.79,153.08,80.82,233.55,99.11,28.1,6.39,69.92,14.24,98.28,11.64,13.8-1.26,16.54-2.65,18.42-15.95,5.6-39.74,5.27-79.56-.02-119.24-.98-7.33-6.01-18.99-3.22-25.59,40.85-37.44,80.59-76.12,118.89-116.15,5.23-2.4,10.58.59,15.73.71,38.43.9,59.72-9.52,76.65-44.46.95-1.96.59-4.77,1.43-6.1.6-.94,15.05-9.83,18.23-12.7,23.01-20.72,33.45-50.03,34.91-80.56l88.45-114.3c49.15-7.16,92.58-37.28,109.62-84.88,16.67-46.58,10.78-114.4-14.88-156.99ZM503.02,150.57c.11-.61,4.78-9.55,5.58-11,2.81-5.06,10.35-15.09,14.01-19.68,9.96-12.47,22.74-22.92,33.18-34.84,1.05,2.96,1.82,6.47,2.06,9.62.58,7.8.72,18.69-1.37,26.12,0,.46,0,.92,0,1.37-.24,13.73-.47,23.29-4.12,37.11-1.78,6.73-3.37,11.74-6.89,17.86-2.06.41-1.27-2.22-2.8-3.29-2.19-1.53-11.91-5.39-12.3-7.69-7.52-4.42-17.68-7.69-24.74-12.37-1.27-.85-2.99-1.04-2.6-3.2ZM443.76,199.82v-35.05c6.54-.26,13.09.77,19.51,1.8,2.35.38,9.05-.14,7.99,3.69,2.96.48,5.24.72,8.25,1.37,14.61,3.18,17.82,5.48,30.24,12.37,21.29,11.81,53.36,41.43,74.05,45.98,1.38.3,3.97-.96,4.29-.61.28,5.31-4.19,4.48-6.86,5.49-19.89,7.52-53,.16-70.1-12.37-4.22-1.83-8.48-5.58-10.85-1.91-2.14,3.3-2.41,17.99-4.67,24.19-1,2.73-3.61,6.33-5.09,9.34-1.4,3.35.14,7.48-4.12,6.87-.46,1.36,1.22,4.47-1.36,4.11-1.19-5.71-3.53-11.05-5.52-16.48-4.13-11.32-7.4-18.83-15.12-28.87-7.2-6.18-13.63-13.16-21.74-18.13-.32-.88,1.13-1.42,1.13-1.8ZM80.88,735.22c-1.32-.91-3.79-13.69-4.14-16.49-3.7-29.18-.47-62.35,8.25-90.72,5.88-19.14,16.35-34.84,20.62-54.98,1.47-6.96,1.88-16.09,2.75-23.37.33-2.74-.59-6.14.02-8.68.3-1.22,2.9-.43,2.86-2.92,0-.53-.82-7.42-2.9-5.59-11.8,14.87-22.21,30.85-31.6,47.43l-13.75,27.49c-1.33,3.16-2.86,6.48-4.12,9.62-3.77,9.35-6.21,19.42-10.61,28.57-.79,1.63-.74,4.06-3.12,4.42-.59-21.44.87-43.01,5.43-63.98.5-2.29.42-4.75,2.81-6.13,3.66-19.31,9.14-33.02,17.87-49.49,1.68-4.84,4.38-10.69,6.87-15.12,6.75-12.02,14.52-24.27,21.99-37.11,2.65-7.75,7.2-14.79,11-21.99.25-.47,1.11-.87,1.37-1.37-2.76-.83,0-4.12.67-5.52,3.08-6.42,6.02-12.74,8.95-19.23,4.06-8.97,7.79-18.11,12.34-26.8-2.11-3.31-2.83-.82-4.09-.69l-16.5,16.5c-15.09,18.91-28.88,38.06-45.36,56.36-1.99,2.21-5.4,7.77-8.18,10.38-.89.84-5.28,3.69-5.56,3.37l10.98-26.12c9.97-44.3,33.63-90.06,67.35-125.09,8.01-10.72,17.79-19.78,27.49-28.87,5.49-5.15,12.89-10.41,17.87-15.12l6.87-6.87c.47-.45.91-.92,1.37-1.37,1.35-1.31,2.77-2.77,4.12-4.12.46-.46.92-.91,1.37-1.37,1.35-1.37,2.82-2.77,4.12-4.12.89-.93,1.92-1.85,2.75-2.75l6.87-6.87c4.56-5.85,9.09-11.82,13.65-17.68.59-.75,4.42-1.57-.35-1.36l-66.89,38.27,16.52-24.01c27.8-35.01,79.98-76.35,120.07-80.36.87-.09,13.31-5.87,14.6-5.59l23.37-2.74c-.72,3.72-5.26,4.27-6.87,5.48-13.91,10.48-28.94,20.29-42.61,31.62l-20.62,20.62c-10.2,11.88-19.98,24.1-28.87,37.11-3.88,5.69-7.41,11.97-11,17.87-7.55,12.41-14.18,23.99-20.62,37.11-2.11,4.29-3.06,10.18-6.87,13.75-3.52,9.63-7.71,19.23-11,28.87-1.99,5.84-3.64,11.97-5.5,17.87-.8,2.52-2.45,5.86-2.75,6.87-2.66,8.96-4.55,18.42-6.87,27.49-2.14,8.38-4.47,16.77-5.52,25.41-.27.68-.69.77-1.35.7l-9.62,56.36c-.68,7.01-1.51,11.15-2.75,17.87-.69,12.79-1.57,26.23-5.5,38.49-.05.45.05.92,0,1.37-3.26,28.63-6.48,57.21-13.75,85.22-7.1,27.37-19.17,51.57-32.12,76.49l-11.85,15.6ZM659.57,623.88c-5.09,7.42-13,12.88-19.24,19.24-1.37,1.4-2.77,2.75-4.12,4.12-18,18.34-35.89,36.97-54.26,55.02l-18.59,16.46c-2.3,2.25-4.53,4.6-6.87,6.87l-8.25,8.25c-.47.45-.91.92-1.37,1.37-9.57,9.24-18.95,18.61-28.87,27.49-6.66,5.96-15.27,14.52-21.99,19.24-3.75,4.37-8.07,10.58-13.75,12.37-17.07,15.74-36.3,33.58-56.36,45.36-5.36,3.15-17.41,11.76-23.36,8.94-6.51-3.09,2.08-14.59,4.11-18.56,13.16-25.63,31.97-45.76,49.48-66.66,29.48-35.18,59.19-70.08,90.72-103.79l15.12-16.5c.44-.47.93-.9,1.37-1.37l32.99-34.36c4.11-4.5,22.1-26.19,25.45-27.48,2.5-.96,2.35,3.51,4.02,5.56,2.41,2.97,5.18,5.24,7.65,8.17l19.24,19.24c5.13,3.75,12.18,3.26,6.87,11ZM443.82,552.47c15.41,1.67,39.73-9.56,53.93-6.62,6.86,1.42,36.12,19.78,44.03,24.69,9.48,5.89,18.85,12.39,28.01,18.77,1.3.91,4.35,1.45,4.49,1.65.91,1.29-.4,3.52-1.25,4.81-4.91,7.52-21.7,21.03-28.97,28.76-9.9,10.52-20.05,21.45-29.54,32.32-15.28,17.51-28.81,36.8-44.64,53.63-25.59-49.15-34.93-102.98-26.07-158.01ZM705.72,634.97c-3.46,4.77-2.36,6.07-9.04,9.53-8.27,4.29-19.65,5.86-28.87,5.48l8.25-6.86c2.44-3.37,15.35-14.3,18.53-13.81.68.11.63,2.8,1.55,2.9,2.75.29,8.77-2.15,12.9-.07.38,2.07-2.24,1.33-3.32,2.83ZM739.81,592.03c-25.14,18.02-48.48,16.6-73.36-1.14-7.37-5.25-11.73-10.33-17.87-16.5-11.37-11.42-32.72-39.32-49.28-40.47-9.53-.67-13.28,9.75-7.49,12.7,4.99,2.55,11.61,1.95,12.75,10.71.69,5.3-6.24,16.21-10.48,16.92-1.51.26-7.03-4.1-8.74-5.36-2.33-1.72-4.64-3.65-6.87-5.5-2.88.46-4.36-1.2-6.48-2.44-12.2-7.13-23.98-15.09-36.13-22.3-5.07-3.01-10.03-6.74-15.12-9.62-3.91-2.22-10.09-6.43-13.38-7.93-15-6.87-41.98,2.74-58.73,3.86-60.11,4.02-103.28-21.47-124.11-78.07-12.28-33.38-12.02-67.17-7.22-102.06-.43.14-1.01-.16-1.37,0-17.87,33.88-21.63,71.16-14.48,108.64.76,4,5.97,18.43,5.84,19.95l2.5,7.45c5.13,8.1,9.99,18.63,15.76,26.16.6.79,2.79,2.57,4.12,4.12.42.49.94.9,1.37,1.37,2.67,2.92,5.45,5.48,8.25,8.25,4.64,3.33,10.51,8.3,15.12,11,19.36,11.35,43.48,19.66,65.99,20.62-1.91,22.87-4.76,48.57-2.76,71.48.04.45-.05.92,0,1.37.02.15,1.1.46,1.37,2.75,1.41,11.75,3.93,21.72,6.87,32.99,2.17,8.3,5.08,16.36,6.87,24.74,3.83,9.43,7.87,18.46,12.37,27.49,2.72,5.47,5.1,11.11,9.36,15.82-5.78,8.86-13.63,16.21-20.36,24.04-5.8,9.26-12.86,17.93-19.5,26.62-11.57,15.15-26.24,32.28-33.4,50.38-9.45,23.88-6.06,43.93,24.03,41.21,8.79-.79,13.88-5.27,21.99-6.87,23.2-13.57,46.21-29.48,66.73-45.3,3.19-2.46,1.46-6.15,10.25-4.2-.38,5.55.53,11.07,1.37,16.5,1.22,7.94,2.11,13.89,2.75,21.99.64,8.03,2.06,15.97,1.43,24.11l-4.13,46.49c-.93,2.6-25.59,1.17-29.59.87-81.37-6.25-172.9-45.29-244-83.84-3.71-2.01-7.82-3.72-11-5.5-34.52-19.29-68.16-41.22-98.97-65.98-7.95-4.14-14.74-10.25-21.97-15.8,5.23-7.27,10.75-14.89,15.1-22.69,52.29-93.86,45.95-203.89,71.58-305.75,18.18-72.26,48.06-136.63,101.62-189.11.46-.45.92-.91,1.37-1.37,1.56-1.58,2.04-4.36,5.5-4.12,5.09-6.13,9.44-9.93,16.5-15.12,4.02-2.96,8.03-5.77,12.36-8.25-1.43,13.26-.15,31.77,9.65,41.92,3.65,3.77,9.32,4.74,12.36,8.94.14-.14,1.98,0,2.75,0-6.3-27.93-4.85-55.02,1.78-82.76,5.52-23.1,21.91-65.94,39.46-80.82,1.32-1.12,1.52-2.62,4.12-4.12.21-4.52,9.17-13.85,12.11-8.68,3.19,5.61,6.63,28.15,8.08,35.91,4.31,23.17,8.13,48.63,5.76,72.26-1.45,14.43-9.51,28.81-10.83,43.47.23.11.93.02,1.37,0,3.43-.16,13.74-4.86,16.84-6.85,1.84-1.18,4.29-6.23,7.48-6.7,5.45-.82,19.99,22.92,22.22,28.18,7.29,17.22,7.55,31.61,5.69,49.98,7.65,3.13,4.9.41,8-1.22,9.14-4.81,24.56-14.13,30.49-22.15,6.21-8.41,11.71-21.35,13.76-31.61,6.44,3.79,13.4,6.87,20.61,8.92,24.33,6.93,23.89,1.52,45.35,18.57,2.88,2.29,5.5,4.41,8.25,6.87,1.12,1,1.85,1.89,2.75,2.75.47.45.91.92,1.37,1.37,5.59,5.44,11.74,9.56,15.37,16.94,8.81,17.92,4.23,27,19,46.29,1.63,2.13,3.84,4.77,5.5,6.87,14.61,12.84,26.83,28.24,39.86,42.61.43.48.94.89,1.37,1.37,2.81,3.09,6.79,6.36,9.62,9.62,2.19,2.52,3.52,4.16,5.5,6.87,2.82.96,3.83,3.79,5.5,5.5.45.46.93.9,1.37,1.37,3.6,3.78,8.82,7.54,11,12.37.94.91,1.83,1.87,2.75,2.75,1.44,1.38,2.73,2.77,4.12,4.12.46.45.91.92,1.37,1.37,7.1,6.97,15.58,13.2,20.62,21.99,3.45,3.52,7.75,7.49,11,11,28.7,30.99,28.18,93.6-7.74,119.35ZM853.37,411.49c-.63,1.49-4.25,3.77-5.58,5.53-6.14,8.14-13.52,16.77-20.53,25.42.43,2.42-2.79,6.81-4.14,8.57-5.99,7.83-12.35,15.94-19.23,23.04-2.81,4.06-8.02,9.61-9.62,12.37-.31.53.34,2.46,0,2.74-.35.29-2.36-.27-2.74,0-.7.51-.17,5.76-2.73,5.49-1.53-11.25-7.04-21.28-13.76-30.23-.45-.45-.91-.94-1.37-1.37-1.81-1.7-7.31-6.24-6.86-7.54.89-1.67,3.01-2.37,4.11-3.46.46-.45.89-.94,1.37-1.37,1.26-4.06,6.48-7.72,9.62-11,.45-.47.92-.91,1.37-1.37,1.86-1.89,3.58-3.64,5.5-5.5,1.37-1.32,2.74-2.76,4.12-4.12l36.43-38.46c4.98,7.37,12.55,11.56,18.56,17.85,1.55.75,6.69.56,5.49,3.42ZM944.11,357.21c-1.07,1.34-2,1.9-2.75,2.75-16.72,18.95-47.71,31.62-72.86,30.25-2.49-31.64,6.5-60.53,13.75-90.73-2.43,1.26-3.82,3.49-5.5,5.5-17.17,20.58-26.93,47.38-28.88,74.23-24.61-30.9-12.54-71.78,11.05-99.62,2.73-3.22,6.69-7.94,10.96-8.98,11.39-12.94,39.61-26.23,54.98-37.11,2.15-4.13,6.58-6.58,9.62-9.62.46-.46.91-.92,1.37-1.37,2.58-2.56,4.55-6.53,8.25-8.25.73-1,1.68-2.63,2.75-4.12,1.73-2.43,9.49-14.73,10.32-15.11,2.14-1,4.73,6.6,5.47,8.26,20.4,45.87,19.35,117.18-18.54,153.94Z"/>
        </g>
      </g>
    </g>
    <path class="f" d="M404.58,82.29v1.37c.89-.46.89-.92,0-1.37Z"/>
    <path class="c" d="M277.43,210.13l-20.62,20.62c7.55-8.8,12-13.48,20.62-20.62Z"/>
    <path class="c" d="M227.95,267.86c-3.88,5.69-7.41,11.97-11,17.87"/>
    <path class="c" d="M63,607.38c4.26-10.09,8.28-17.83,13.75-27.49l-13.75,27.49Z"/>
    <path class="c" d="M419.02,628l-1.37-2.75c.02.15,1.1.46,1.37,2.75Z"/>
    <path class="c" d="M178.46,293.98l6.87-6.87c-2.32,2.23-4.47,4.6-6.87,6.87Z"/>
    <g>
      <path class="i" d="M596.34,607.38c-10.73,11.75-22.13,22.75-32.99,34.36l32.99-34.36Z"/>
      <path class="i" d="M633.45,593.64l19.24,19.24"/>
      <path class="i" d="M659.57,623.88c-5.09,7.42-13,12.88-19.24,19.24"/>
      <path class="i" d="M561.97,643.12c-4.4,4.71-9.99,11.01-15.12,16.5l15.12-16.5Z"/>
      <path class="f" d="M714.55,438.31l-4.12-4.12c1.44,1.38,2.73,2.77,4.12,4.12Z"/>
      <path class="i" d="M548.23,733.85c2.76-2.67,5.45-5.53,8.25-8.25l-8.25,8.25Z"/>
      <path class="e" d="M704.93,494.67c1.09.82,11.12,22.13,11.76,24.66,1.74,6.88,1.46,10.32-.76,16.58-4.76-31.1-18.9-7.25-9.62,11-8.27,2.13-13.84.95-20.68-4.75-.84-.7-7.86-9.79-8.18-10.38-5.61-10.13-8.46-26.88-2-37.05,7.54-11.88,15.96-6.31,25.39-.71,1.27.76,3.75.39,4.1.65Z"/>
      <path class="i" d="M783.28,438.31c1.86-1.89,3.58-3.64,5.5-5.5l-5.5,5.5Z"/>
    </g>
    <path class="c" d="M329.67,511.16l-4.12-4.12c.6.79,2.79,2.57,4.12,4.12Z"/>
    <path class="e" d="M336.54,757.22c2.38,4.28,20.82,33.84,19.23,35.74-6.92-5.17-14.56-9.68-21.26-15.16-7.18-5.87-15.56-16.45-22.72-20.58l-22.26-34.14c-.79-.63-1.77-.09-2.48-.22-11.3-24.87-25.44-48.95-33.65-75.63-4.68-15.22-6.36-31.82-11.71-46.71-.05-.45.05-.92,0-1.37-4.18-36.36-7.28-79.34-1.37-115.47.07-.45-.08-.93,0-1.37,2.07-11.94,7.92-25.19,10.08-37.35l5.03-10.76c-3.96,43.41-4.12,84.87,3.42,127.86,12.61,71.91,42.68,132.26,77.7,195.16Z"/>
    <path class="e" d="M538.6,364.08c-.41.15-2.12.1-2.75,0l-19.24-13.73c4.09,7.35-2.61,13.76-4.12,20.61-1.06.99-3.83,3.92-4.12,4.12-3.91-.1-7.25,2.22-11,2.75-1.26.18-2.78-.04-4.12,0-1.83.05-3.67-.04-5.5,0h-1.37c-3.99-1.51-7.69-2.58-11-5.5-1.16-1.36-1.26-1.56-2.75-2.75-4.07-6.97-5.92-15.7-2.75-23.35l-21.99,4.11c-.84-.22-4.33.57-2.04-1.37,10.2-6.2,19.47-13.84,30.91-17.88,30.75-10.84,53.74,2.02,61.86,32.99Z"/>
    <path class="g" d="M404.58,82.29c.89.46.89.92,0,1.37v-1.37Z"/>
    <path class="e" d="M375.03,234.87c-18.24-26.01,5.46-83.43,18.3-108.85.81-1.6,1.75-5.15,3.68-5.23.11,26.56,4.48,56.6-.39,82.75-2.25,12.08-7.99,26.69-18.16,33.81-.21,0-3.3-2.29-3.43-2.48Z"/>
  </g>
  <g>
    <path class="d" d="M502.63,519.24c.05-.45-.05-.92,0-1.37,3.93-12.26,4.81-25.69,5.5-38.49,1.24-6.71,2.07-10.86,2.75-17.87l9.62-56.36c.66.07,1.08-.02,1.35-.7,1.06-8.64,3.38-17.03,5.52-25.41,2.32-9.08,4.21-18.53,6.87-27.49.3-1.01,1.95-4.35,2.75-6.87,1.86-5.9,3.5-12.03,5.5-17.87,3.29-9.64,7.47-19.24,11-28.87,3.81-3.57,4.77-9.46,6.87-13.75,6.44-13.12,13.07-24.7,20.62-37.11,3.59-5.9,7.11-12.18,11-17.87,8.89-13.02,18.67-25.23,28.87-37.11l20.62-20.62c13.67-11.33,28.7-21.14,42.61-31.62,1.61-1.21,6.15-1.77,6.87-5.48l-23.37,2.74c-1.29-.27-13.73,5.51-14.6,5.59-40.09,4.01-92.28,45.35-120.07,80.36l-16.52,24.01,66.89-38.27c4.77-.21.94.6.35,1.36-4.56,5.86-9.08,11.83-13.65,17.68l-6.87,6.87c-.83.9-1.86,1.82-2.75,2.75-1.3,1.36-2.77,2.75-4.12,4.12-.45.46-.92.92-1.37,1.37-1.35,1.35-2.77,2.81-4.12,4.12-.46.45-.91.93-1.37,1.37l-6.87,6.87c-4.98,4.71-12.38,9.97-17.87,15.12-9.7,9.09-19.49,18.15-27.49,28.87-33.73,35.03-57.38,80.79-67.35,125.09l-10.98,26.12c.27.33,4.66-2.53,5.56-3.37,2.78-2.61,6.18-8.17,8.18-10.38,16.48-18.29,30.27-37.45,45.36-56.36l16.5-16.5c1.26-.13,1.98-2.63,4.09.69-4.55,8.7-8.28,17.83-12.34,26.8-2.93,6.48-5.87,12.8-8.95,19.23-.67,1.4-3.43,4.69-.67,5.52-.26.51-1.13.9-1.37,1.37-3.8,7.2-8.34,14.25-11,21.99-7.48,12.85-15.24,25.09-21.99,37.11-2.49,4.44-5.19,10.28-6.87,15.12-8.73,16.47-14.21,30.18-17.87,49.49-2.39,1.38-2.31,3.84-2.81,6.13-4.55,20.96-6.01,42.53-5.43,63.98,2.39-.36,2.34-2.79,3.12-4.42,4.4-9.15,6.83-19.22,10.61-28.57,1.27-3.14,2.79-6.46,4.12-9.62l13.75-27.49c9.38-16.59,19.8-32.57,31.6-47.43,2.08-1.83,2.89,5.06,2.9,5.59.04,2.49-2.56,1.7-2.86,2.92-.62,2.54.3,5.95-.02,8.68-.87,7.28-1.27,16.41-2.75,23.37-4.27,20.15-14.74,35.84-20.62,54.98-8.72,28.37-11.95,61.54-8.25,90.72.35,2.8,2.82,15.58,4.14,16.49l11.85-15.6c12.95-24.93,25.02-49.12,32.12-76.49,7.26-28.02,10.49-56.59,13.75-85.22Z"/>
    <path class="d" d="M1016.73,574.22l-19.24-19.24c-2.47-2.94-5.23-5.21-7.65-8.17-1.67-2.05-1.52-6.52-4.02-5.56-3.35,1.29-21.34,22.98-25.45,27.48l-32.99,34.36c-.44.47-.93.9-1.37,1.37l-15.12,16.5c-31.53,33.71-61.24,68.61-90.72,103.79-17.51,20.9-36.33,41.03-49.48,66.66-2.04,3.97-10.63,15.48-4.11,18.56,5.95,2.82,18-5.8,23.36-8.94,20.06-11.78,39.28-29.62,56.36-45.36,5.67-1.79,9.99-8,13.75-12.37,6.72-4.72,15.34-13.28,21.99-19.24,9.92-8.88,19.3-18.25,28.87-27.49.47-.45.91-.92,1.37-1.37l8.25-8.25c2.35-2.27,4.57-4.62,6.87-6.87l18.59-16.46c18.37-18.05,36.26-36.68,54.26-55.02,1.35-1.38,2.75-2.72,4.12-4.12,6.24-6.37,14.16-11.82,19.24-19.24,5.3-7.74-1.74-7.25-6.87-11Z"/>
    <path class="d" d="M869.65,115.11c7.06,4.68,17.22,7.95,24.74,12.37.39,2.3,10.11,6.17,12.3,7.69,1.54,1.07.74,3.7,2.8,3.29,3.53-6.12,5.11-11.13,6.89-17.86,3.65-13.82,3.89-23.39,4.12-37.11,0-.46,0-.92,0-1.37,2.1-7.43,1.96-18.32,1.37-26.12-.23-3.14-1-6.66-2.06-9.62-10.44,11.92-23.23,22.37-33.18,34.84-3.67,4.59-11.2,14.63-14.01,19.68-.8,1.45-5.47,10.39-5.58,11-.39,2.16,1.32,2.35,2.6,3.2Z"/>
    <path class="d" d="M828.41,181.09c7.72,10.03,10.99,17.54,15.12,28.87,1.98,5.44,4.32,10.77,5.52,16.48,2.58.36.9-2.75,1.36-4.11,4.27.61,2.73-3.53,4.12-6.87,1.49-3.01,4.1-6.61,5.09-9.34,2.26-6.2,2.54-20.88,4.67-24.19,2.37-3.67,6.63.09,10.85,1.91,17.1,12.53,50.22,19.89,70.1,12.37,2.67-1.01,7.14-.19,6.86-5.49-.32-.35-2.91.92-4.29.61-20.7-4.55-52.77-34.17-74.05-45.98-12.42-6.89-15.63-9.19-30.24-12.37-3-.65-5.28-.89-8.25-1.37,1.06-3.84-5.64-3.31-7.99-3.69-6.41-1.04-12.97-2.06-19.51-1.8v35.05c0,.38-1.45.92-1.13,1.8,8.12,4.97,14.54,11.96,21.74,18.13Z"/>
    <path class="d" d="M908.1,585.87c7.27-7.73,24.06-21.24,28.97-28.76.84-1.29,2.16-3.52,1.25-4.81-.14-.2-3.19-.74-4.49-1.65-9.17-6.38-18.53-12.88-28.01-18.77-7.9-4.91-37.17-23.27-44.03-24.69-14.21-2.94-38.53,8.29-53.93,6.62-8.86,55.03.48,108.86,26.07,158.01,15.82-16.83,29.36-36.11,44.64-53.63,9.49-10.87,19.64-21.8,29.54-32.32Z"/>
    <path class="d" d="M1100.58,423.02c-5.04-8.79-13.52-15.02-20.62-21.99-.46-.45-.91-.92-1.37-1.37-1.39-1.35-2.68-2.75-4.12-4.12-.92-.88-1.81-1.84-2.75-2.75-2.18-4.83-7.4-8.59-11-12.37-.45-.47-.92-.91-1.37-1.37-1.67-1.71-2.68-4.53-5.5-5.5-1.98-2.71-3.31-4.35-5.5-6.87-2.84-3.27-6.81-6.53-9.62-9.62-.44-.48-.94-.9-1.37-1.37-13.03-14.37-25.26-29.77-39.86-42.61-1.66-2.11-3.87-4.74-5.5-6.87-14.77-19.29-10.19-28.38-19-46.29-3.63-7.38-9.77-11.5-15.37-16.94-.46-.45-.9-.93-1.37-1.37-.9-.86-1.63-1.75-2.75-2.75-2.75-2.46-5.37-4.59-8.25-6.87-21.46-17.04-21.02-11.64-45.35-18.57-7.21-2.05-14.17-5.14-20.61-8.92-2.05,10.26-7.55,23.21-13.76,31.61-5.93,8.02-21.35,17.34-30.49,22.15-3.11,1.63-.35,4.35-8,1.22,1.86-18.37,1.6-32.75-5.69-49.98-2.23-5.26-16.77-29-22.22-28.18-3.19.48-5.65,5.52-7.48,6.7-3.1,1.99-13.41,6.69-16.84,6.85-.44.02-1.15.11-1.37,0,1.32-14.66,9.38-29.04,10.83-43.47,2.37-23.62-1.45-49.08-5.76-72.26-1.44-7.76-4.89-30.3-8.08-35.91-2.94-5.17-11.91,4.15-12.11,8.68-2.61,1.5-2.8,3-4.12,4.12-17.55,14.88-33.94,57.71-39.46,80.82-6.62,27.74-8.08,54.83-1.78,82.76-.76,0-2.61-.14-2.75,0-3.04-4.2-8.72-5.17-12.36-8.94-9.8-10.14-11.08-28.65-9.65-41.92-4.33,2.48-8.34,5.29-12.36,8.25-7.05,5.19-11.4,8.99-16.5,15.12-3.46-.23-3.94,2.55-5.5,4.12-.46.46-.91.92-1.37,1.37-53.56,52.47-83.44,116.85-101.62,189.11-25.63,101.86-19.29,211.88-71.58,305.75-4.35,7.8-9.87,15.42-15.1,22.69,7.23,5.55,14.02,11.66,21.97,15.8,30.82,24.76,64.45,46.69,98.97,65.98,3.18,1.78,7.29,3.49,11,5.5,71.11,38.54,162.63,77.58,244,83.84,4,.31,28.66,1.73,29.59-.87l4.13-46.49c.63-8.15-.8-16.08-1.43-24.11-.64-8.1-1.53-14.05-2.75-21.99-.84-5.43-1.75-10.95-1.37-16.5-8.79-1.95-7.06,1.74-10.25,4.2-20.52,15.82-43.53,31.72-66.73,45.3-8.12,1.6-13.2,6.08-21.99,6.87-30.09,2.71-33.48-17.34-24.03-41.21,7.17-18.1,21.84-35.23,33.4-50.38,6.64-8.69,13.69-17.36,19.5-26.62,6.72-7.83,14.58-15.18,20.36-24.04-4.26-4.71-6.64-10.36-9.36-15.82-4.5-9.03-8.55-18.06-12.37-27.49-1.79-8.39-4.71-16.44-6.87-24.74-2.94-11.27-5.46-21.24-6.87-32.99-.28-2.29-1.36-2.6-1.37-2.75-.05-.45.04-.92,0-1.37-2-22.91.85-48.6,2.76-71.48-22.51-.96-46.62-9.27-65.99-20.62-4.61-2.7-10.48-7.66-15.12-11-2.8-2.77-5.58-5.32-8.25-8.25-.43-.48-.96-.89-1.37-1.37-1.33-1.55-3.52-3.34-4.12-4.12-5.77-7.53-10.63-18.06-15.76-26.16l-2.5-7.45c.12-1.52-5.08-15.95-5.84-19.95-7.15-37.48-3.39-74.76,14.48-108.64.36-.16.94.14,1.37,0-4.8,34.89-5.07,68.68,7.22,102.06,20.83,56.59,64,82.08,124.11,78.07,16.75-1.12,43.73-10.73,58.73-3.86,3.28,1.5,9.46,5.71,13.38,7.93,5.1,2.89,10.05,6.61,15.12,9.62,12.15,7.21,23.93,15.17,36.13,22.3,2.12,1.24,3.61,2.9,6.48,2.44,2.24,1.85,4.54,3.78,6.87,5.5,1.71,1.26,7.23,5.62,8.74,5.36,4.23-.72,11.17-11.62,10.48-16.92-1.14-8.76-7.76-8.16-12.75-10.71-5.79-2.96-2.05-13.37,7.49-12.7,16.55,1.16,37.9,29.06,49.28,40.47,6.14,6.17,10.5,11.24,17.87,16.5,24.88,17.74,48.22,19.16,73.36,1.14,35.92-25.75,36.44-88.36,7.74-119.35-3.25-3.51-7.55-7.48-11-11Z"/>
  </g>
  <path class="j" d="M853.31,410.61c-.63,1.49-4.25,3.77-5.58,5.53-6.14,8.14-13.52,16.77-20.53,25.42.43,2.42-2.79,6.81-4.14,8.57-5.99,7.83-12.35,15.94-19.23,23.04-2.81,4.06-8.02,9.61-9.62,12.37-.31.53.34,2.46,0,2.74-.35.29-2.36-.27-2.74,0-.7.51-.17,5.76-2.73,5.49-1.53-11.25-7.04-21.28-13.76-30.23-.45-.45-.91-.94-1.37-1.37-1.81-1.7-7.31-6.24-6.86-7.54.89-1.67,3.01-2.37,4.11-3.46.46-.45.89-.94,1.37-1.37,1.26-4.06,6.48-7.72,9.62-11,.45-.47.92-.91,1.37-1.37,1.86-1.89,3.58-3.64,5.5-5.5,1.37-1.32,2.74-2.76,4.12-4.12l36.43-38.46c4.98,7.37,12.55,11.56,18.56,17.85,1.55.75,6.69.56,5.49,3.42Z"/>
  <path class="j" d="M659.36,624.14c-5.09,7.42-13,12.88-19.24,19.24-1.37,1.4-2.77,2.75-4.12,4.12-18,18.34-35.89,36.97-54.26,55.02l-18.59,16.46c-2.3,2.25-4.53,4.6-6.87,6.87l-8.25,8.25c-.47.45-.91.92-1.37,1.37-9.57,9.24-18.95,18.61-28.87,27.49-6.66,5.96-15.27,14.52-21.99,19.24-3.75,4.37-8.07,10.58-13.75,12.37-17.07,15.74-36.3,33.58-56.36,45.36-5.36,3.15-17.41,11.76-23.36,8.94-6.51-3.09,2.08-14.59,4.11-18.56,13.16-25.63,31.97-45.76,49.48-66.66,29.48-35.18,59.19-70.08,90.72-103.79l15.12-16.5c.44-.47.93-.9,1.37-1.37l32.99-34.36c4.11-4.5,22.1-26.19,25.45-27.48,2.5-.96,2.35,3.51,4.02,5.56,2.41,2.97,5.18,5.24,7.65,8.17l19.24,19.24c5.13,3.75,12.18,3.26,6.87,11Z"/>
  <path class="k" d="M944.19,356.98c-1.07,1.34-2,1.9-2.75,2.75-16.72,18.95-47.71,31.62-72.86,30.25-2.49-31.64,6.5-60.53,13.75-90.73-2.43,1.26-3.82,3.49-5.5,5.5-17.17,20.58-26.93,47.38-28.88,74.23-24.61-30.9-12.54-71.78,11.05-99.62,2.73-3.22,6.69-7.94,10.96-8.98,11.39-12.94,39.61-26.23,54.98-37.11,2.15-4.13,6.58-6.58,9.62-9.62.46-.46.91-.92,1.37-1.37,2.58-2.56,4.55-6.53,8.25-8.25.73-1,1.68-2.63,2.75-4.12,1.73-2.43,9.49-14.73,10.32-15.11,2.14-1,4.73,6.6,5.47,8.26,20.4,45.87,19.35,117.18-18.54,153.94Z"/>
  <path class="b" d="M503.15,150.9c.11-.61,4.78-9.55,5.58-11,2.81-5.06,10.35-15.09,14.01-19.68,9.96-12.47,22.74-22.92,33.18-34.84,1.05,2.96,1.82,6.47,2.06,9.62.58,7.8.72,18.69-1.37,26.12,0,.46,0,.92,0,1.37-.24,13.73-.47,23.29-4.12,37.11-1.78,6.73-3.37,11.74-6.89,17.86-2.06.41-1.27-2.22-2.8-3.29-2.19-1.53-11.91-5.39-12.3-7.69-7.52-4.42-17.68-7.69-24.74-12.37-1.27-.85-2.99-1.04-2.6-3.2Z"/>
  <g>
    <path class="h" d="M444.04,199.57v-35.05c6.54-.26,13.09.77,19.51,1.8,2.35.38,9.05-.14,7.99,3.69,2.96.48,5.24.72,8.25,1.37,14.61,3.18,17.82,5.48,30.24,12.37,21.29,11.81,53.36,41.43,74.05,45.98,1.38.3,3.97-.96,4.29-.61.28,5.31-4.19,4.48-6.86,5.49-19.89,7.52-53,.16-70.1-12.37-4.22-1.83-8.48-5.58-10.85-1.91-2.14,3.3-2.41,17.99-4.67,24.19-1,2.73-3.61,6.33-5.09,9.34-1.4,3.35.14,7.48-4.12,6.87-.46,1.36,1.22,4.47-1.36,4.11-1.19-5.71-3.53-11.05-5.52-16.48-4.13-11.32-7.4-18.83-15.12-28.87-7.2-6.18-13.63-13.16-21.74-18.13-.32-.88,1.13-1.42,1.13-1.8Z"/>
    <path class="h" d="M81.16,734.97c-1.32-.91-3.79-13.69-4.14-16.49-3.7-29.18-.47-62.35,8.25-90.72,5.88-19.14,16.35-34.84,20.62-54.98,1.47-6.96,1.88-16.09,2.75-23.37.33-2.74-.59-6.14.02-8.68.3-1.22,2.9-.43,2.86-2.92,0-.53-.82-7.42-2.9-5.59-11.8,14.87-22.21,30.85-31.6,47.43l-13.75,27.49c-1.33,3.16-2.86,6.48-4.12,9.62-3.77,9.35-6.21,19.42-10.61,28.57-.79,1.63-.74,4.06-3.12,4.42-.59-21.44.87-43.01,5.43-63.98.5-2.29.42-4.75,2.81-6.13,3.66-19.31,9.14-33.02,17.87-49.49,1.68-4.84,4.38-10.69,6.87-15.12,6.75-12.02,14.52-24.27,21.99-37.11,2.65-7.75,7.2-14.79,11-21.99.25-.47,1.11-.87,1.37-1.37-2.76-.83,0-4.12.67-5.52,3.07-6.42,6.02-12.74,8.95-19.23,4.06-8.97,7.79-18.11,12.34-26.8-2.11-3.31-2.83-.82-4.09-.69l-16.5,16.5c-15.09,18.91-28.88,38.06-45.36,56.36-1.99,2.21-5.4,7.77-8.18,10.38-.89.84-5.28,3.69-5.56,3.37l10.98-26.12c9.97-44.3,33.63-90.06,67.35-125.09,8.01-10.72,17.79-19.78,27.49-28.87,5.49-5.15,12.89-10.41,17.87-15.12l6.87-6.87c.47-.45.91-.92,1.37-1.37,1.35-1.31,2.77-2.77,4.12-4.12.46-.46.92-.91,1.37-1.37,1.35-1.37,2.82-2.77,4.12-4.12.89-.93,1.92-1.85,2.75-2.75l6.87-6.87c4.56-5.85,9.09-11.82,13.65-17.68.59-.75,4.42-1.57-.35-1.36l-66.89,38.27,16.52-24.01c27.8-35.01,79.98-76.35,120.07-80.36.87-.09,13.31-5.87,14.6-5.59l23.37-2.74c-.72,3.72-5.26,4.27-6.87,5.48-13.91,10.48-28.94,20.29-42.61,31.62l-20.62,20.62c-10.2,11.88-19.98,24.1-28.87,37.11-3.88,5.69-7.41,11.97-11,17.87-7.55,12.41-14.18,23.99-20.62,37.11-2.11,4.29-3.06,10.18-6.87,13.75-3.52,9.63-7.71,19.23-11,28.87-1.99,5.84-3.64,11.97-5.5,17.87-.8,2.52-2.45,5.86-2.75,6.87-2.66,8.96-4.55,18.42-6.87,27.49-2.14,8.38-4.47,16.77-5.52,25.41-.27.68-.69.77-1.35.7l-9.62,56.36c-.68,7.01-1.51,11.15-2.75,17.87-.69,12.79-1.57,26.23-5.5,38.49-.05.45.05.92,0,1.37-3.26,28.63-6.48,57.21-13.75,85.22-7.1,27.37-19.17,51.57-32.12,76.49l-11.85,15.6Z"/>
  </g>
  <path class="b" d="M705.67,634.75c-3.46,4.77-2.36,6.07-9.04,9.53-8.27,4.29-19.65,5.86-28.87,5.48l8.25-6.86c2.44-3.37,15.35-14.3,18.53-13.81.68.11.63,2.8,1.55,2.9,2.75.29,8.77-2.15,12.9-.07.38,2.07-2.24,1.33-3.32,2.83Z"/>
</svg>